<?xml version="1.0" encoding="UTF-8"?>
<svg id="Layer_2" data-name="Layer 2" xmlns="http://www.w3.org/2000/svg" viewBox="0 0 610.09 407.88">
  <defs>
    <style>
      .cls-1 {
        fill: #313130;
        stroke-width: 0px;
      }
    </style>
  </defs>
  <g id="Layer_1-2" data-name="Layer 1">
    <g>
      <path class="cls-1" d="m459.56,233.88l-30.24,116.72c-25.92,16.67-108.15,52.58-116.03,55.86-4.67,1.95-10.76,1.89-15.42-.17-11.88-5.2-88.07-41.52-99.69-47.35l-32.4-108.39c15.77,9.59,76.45,35.65,93.19,43.24,27.13,12.28,54.11,16.81,82.2,5.14,27.39-11.39,93.39-47.82,118.41-65.06Z"/>
      <path class="cls-1" d="m609.62,8.37c-2.16.67-4.51.99-6.43,2.07-7.29,4.11-14.53,8.31-21.62,12.74-42.13,26.31-84.21,52.7-126.31,79.06-1.21.76-2.41,1.53-3.38,2.15-1.73-17.78-2.93-35.35-5.27-52.76-2.34-17.42-5.89-34.67-13.09-51.63-.66,1.09-.9,1.35-1,1.65-.5,1.54-1.04,3.07-1.43,4.64-5.38,22-13.68,42.73-26.5,61.52-5.49,8.05-8.89,16.94-11.11,26.39-1.14,4.84-2.81,9.56-4.44,14.26-1.04,2.99-3.02,5.5-6.45,5.35-3.33-.15-4.72-2.86-5.58-5.76-2.18-7.31-1.54-14.66.59-21.76,2.27-7.57,5.28-14.93,8.07-22.69-53.54-26.67-107.28-25.74-161.46.19.62,1.63,1.12,2.87,1.57,4.13,2.29,6.32,4.99,12.54,6.73,19.01,1.9,7.11,3.33,14.52.87,21.77-.69,2.02-2.97,4.46-4.86,4.8-1.64.29-4.47-1.68-5.53-3.41-1.91-3.14-3.13-6.78-4.22-10.33-3.56-11.59-7.45-22.96-14.09-33.29-11.76-18.29-19.99-38.14-25-59.32-.53-2.22-1.47-4.34-2.21-6.51l-1.14.18c-12.09,33.39-14.91,68.35-17.02,103.78-1.09-.59-1.86-.94-2.56-1.39-28.15-17.8-56.2-35.77-84.48-53.36C50.24,36.15,27.92,22.89,5.69,9.5c-1.4-.85-3.09-1.2-5.69-2.16.55,5.67.67,10.39,1.51,14.99,5.85,31.82,14.07,63.03,25.32,93.37,13.33,35.94,35.73,65.28,66.02,88.66,3.78,2.91,7.63,5.74,11.44,8.6.47-.18.93-.36,1.4-.54-1.08-14.65-1.68-29.36-3.42-43.94-.88-7.39-2.27-14.92-6.82-21.48-13.5-19.48-26.71-39.17-40.01-58.79-1.18-1.74-2.14-3.62-3.2-5.44,1.28-.08,1.96.22,2.58.62,27.12,17.06,52.39,36.61,76.93,57.15,2.92,2.45,3.04,4.64,1.85,8.01-9.52,27.01-14.99,54.8-15.54,83.5-.08,4.3-.39,8.59-.62,13.34-10.24-5.19-19.63-10.94-27.5-18.6-9.65-9.4-18.56-19.56-27.95-29.24-2.31-2.38-4.97-4.85-7.96-6.02-2.46-.95-6.02-.86-8.41.25-3.03,1.41-3.6,4.96-2.82,8.23.6,2.54,1.36,5.08,2.41,7.45,4.35,9.84,10.84,18.23,18.27,25.89,13.79,14.2,30.46,24.17,48.42,32.04,4.91,2.15,8.5,4.64,8.52,10.52,0,1.59.48,3.2.89,4.76,2.32,8.75,4.68,17.49,7.03,26.23.35-.03.71-.06,1.07-.09,2.84-6.7,5.69-13.4,8.38-19.74,5.96,13.7,11.88,27.42,17.93,41.09.89,2,2.11,4.07,3.72,5.51,16.48,14.74,33.25,29.13,51.62,41.55,23.37,15.79,34.48,20.2,54.48,28.2-11.14-11.89-14.01-23.19-19.44-40.14-21.74-10.25-26.43-16.8-43.69-34.25-12.88-13.02-21.3-28.68-26.94-45.35,13.04,6.47,26.03,13.39,39.42,19.39,7.8,3.49,16.22,5.63,24.44,8.12,3.33,1,5.5,2.72,7.15,5.85,3.08,5.83,6.67,11.39,10.05,17.06.39.63.85,1.22,1.56,2.24,3.63-5.43,7.02-10.21,10.08-15.18,1.33-2.15,2.81-3,5.19-2.35.12.03.25.07.37.07,8.35.01,59.74,1.38,65.91-.05.59-.14,1.7,1.21,2.3,2.06,3.52,4.97,6.95,9.99,11.12,16.01,3.81-6.95,7.5-12.86,10.34-19.14,1.74-3.85,4.12-5.65,8.09-6.64,6.98-1.73,13.82-3.79,20.52-6.21,2.38-.86,4.73-1.76,7.07-2.71,2.2-.89,4.37-1.82,6.53-2.79,8.07-3.64,15.88-7.86,23.42-12.73,1.05-.68,2.05-1.43,3.1-2.11.93-.6,1.9-1.16,2.85-1.74.35.19.7.38,1.04.57-4.29,8.74-8.12,17.76-12.99,26.18-9.18,15.84-22.64,27.83-37.12,38.65-8.87,6.65-8.14,5.54-17.79,10.71-3.77,16.64-3.64,29.45-16.58,42.48,17-8,11.74-3.75,32.09-16.16,23-14.02,43.9-30.85,64.17-48.49,2.23-1.94,4.95-3.89,6.08-6.43,6.15-13.89,11.87-27.97,17.75-41.98.25-.58.64-1.09,1.15-1.95,2.99,7.22,5.8,14.02,8.61,20.81.45,0,.9-.01,1.35-.02,2.78-11.71,5.47-23.45,8.42-35.12.41-1.62,1.83-3.49,3.3-4.27,6.17-3.26,12.66-5.92,18.8-9.24,19.76-10.67,36.82-24.46,48.44-44.04,2.64-4.44,4.43-9.44,6.08-14.36,1.03-3.08.06-6.23-2.61-8.41-2.66-2.18-5.76-1.89-8.43-.36-3.11,1.78-6.14,3.87-8.7,6.35-3.77,3.64-7.17,7.67-10.57,11.66-10.94,12.82-23.13,24.19-37.72,32.79-2.18,1.29-4.43,2.47-7.02,3.9.18-22.12-1.28-43.41-6.25-64.27-2.8-11.72-6.5-23.24-9.97-34.8-.71-2.36-.61-4.02,1.45-5.51,1.2-.87,2.15-2.1,3.33-3.01,19.59-15.08,39.1-30.25,58.84-45.12,5.66-4.25,11.97-7.62,17.99-11.4.03,1.34-.34,2.12-.82,2.83-13.01,19.23-26.1,38.41-39.02,57.7-2.82,4.2-6.45,8.5-7.35,13.21-2.46,12.82-3.91,25.86-5.26,38.86-.63,6.06-.11,12.23-.11,18.35.38.1.75.21,1.13.31,6.26-5.12,12.53-10.23,18.8-15.36,24.96-20.42,43.13-45.84,55.69-75.44,7.61-17.93,13.13-36.54,17.74-55.38,4.22-17.27,7.49-34.77,11.02-52.2.42-2.06-.19-4.33-.32-6.5ZM214.62,255.53c-28.83-.06-51.96-23.67-51.78-52.84.18-30.36,7.84,41.14,51.93,42.19s53.05-71.22,52.9-41.94c-.15,29.32-23.7,52.66-53.05,52.59Zm133.35,12.76c-2.32,4.63-4.72,9.29-7.75,13.46-1.15,1.59-4.03,1.93-6.87,3.17v-14.24c-3.7,0-6.95-.24-10.13.13-1.15.13-2.23,1.64-3.17,2.67-4.03,4.41-7.97,8.89-11.98,13.31-1.62,1.8-3.48,1.96-5.13.18-3.87-4.18-7.86-8.29-11.34-12.79-1.92-2.49-3.63-4.12-6.98-3.58-2.06.33-4.22.06-6.96.06v13.36c-.39.28-.78.56-1.16.85-2.39-1.53-5.41-2.58-7.04-4.69-2.69-3.5-4.66-7.61-6.53-11.65-.43-.92.36-3.22,1.29-3.81,5.98-3.84,12.08-7.5,18.32-10.89,1.16-.64,3.47-.37,4.64.41,5.29,3.53,10.4,7.33,15.49,11.15,1.85,1.39,3.28,1.51,5.23.04,4.98-3.75,10.21-7.17,15.2-10.92,2.03-1.52,3.79-2.08,6.05-.67,5.81,3.64,11.73,7.13,17.45,10.9.9.6,1.77,2.76,1.37,3.55Zm46.72-12.72c-28.67-.29-52.45-24.76-52.07-53.79.39-29.85,10.16,43.01,55.15,44.1,41,1,50.32-71.77,50.11-42.48-.22,29.62-23.52,52.47-53.19,52.17Z"/>
      <path class="cls-1" d="m421.68,227.07c-3.1,3.13-17.83-15.17-21.87-13.55-4.31,1.73,2.02,23.27-2.62,23.23-7.16-.07-14.25-2.28-19.84-6.75-7.13-5.69-9.99-13.69-11.14-22.38-1.19-8.98.4-17.46,6.06-24.7,6.31-8.08,14.98-11.3,25.02-10.26,13.18,1.37,23.31,7.92,29.96,19.39,3.91,6.75,4.54,14.71,2.26,22.08-1.46,4.71-4.1,9.18-7.82,12.94Z"/>
      <path class="cls-1" d="m238.91,230.69c-3.1,3.13-17.83-15.17-21.87-13.55-4.31,1.73,2.02,23.27-2.62,23.23-7.16-.07-14.25-2.28-19.84-6.75-7.13-5.69-9.99-13.69-11.14-22.38-1.19-8.98.4-17.46,6.06-24.7,6.31-8.08,14.98-11.3,25.02-10.26,13.18,1.37,23.31,7.92,29.96,19.39,3.91,6.75,4.54,14.71,2.26,22.08-1.46,4.71-4.1,9.18-7.82,12.94Z"/>
      <path class="cls-1" d="m296.48,329.44c5.11-14,29.65-12.43,36.81-11.43s11.51-.73,16.37,11c1.29,30.62-32.73,71-43.98,71s-43.97-48.57-43.97-82.85c1.53-5.83,9.99-20.15,14.99-22.15,7.07-2.83,45-1,51-1,5,0,11,11,13.78,17-13.78-7-52.78-1-54.21,10-4.04,22.83,10.23,44,10.23,44,9.21,12,17.39,7,24.55-2,5.11-8,15.34-20,5.11-26s-24.03,7.55-22.7,15.45c-6.68-7.21-8.71-13.45-7.97-23.02Z"/>
    </g>
  </g>
</svg>